<svg width="33" height="32" viewBox="0 0 33 32" fill="none" xmlns="http://www.w3.org/2000/svg">
<path d="M7.62939 10.2038V19.915H13.7187V17.2648C13.7187 15.3846 14.7345 13.8604 16.6147 13.8604C18.4949 13.8604 19.5107 15.3846 19.5107 17.2648V19.915H25.6V10.2686" stroke="#4490FF" stroke-width="1.2" stroke-miterlimit="10" stroke-linecap="round" stroke-linejoin="round"/>
<path d="M7.62939 5.92334V4.00002H25.6V5.85418" stroke="#4490FF" stroke-width="1.2" stroke-miterlimit="10" stroke-linecap="round" stroke-linejoin="round"/>
<path d="M7.13818 19.915H14.1165" stroke="#4490FF" stroke-width="1.2" stroke-miterlimit="10" stroke-linecap="round" stroke-linejoin="round"/>
<path d="M19.0667 19.915H26.0449" stroke="#4490FF" stroke-width="1.2" stroke-miterlimit="10" stroke-linecap="round" stroke-linejoin="round"/>
<path d="M16.6147 12.0703V13.5562" stroke="#4490FF" stroke-width="1.2" stroke-miterlimit="10" stroke-linecap="round" stroke-linejoin="round"/>
<path d="M27.0711 10.1328V5.99786H6.15899L6.15894 10.1328H27.0711Z" stroke="#4490FF" stroke-width="1.2" stroke-miterlimit="10" stroke-linecap="round" stroke-linejoin="round"/>
<path d="M7.37549 29H13.9729V26.9242H7.37549V29Z" stroke="#4490FF" stroke-width="1.2" stroke-miterlimit="10" stroke-linecap="round" stroke-linejoin="round"/>
<path d="M13.7187 19.9149H7.62939V26.9243H13.7187V19.9149Z" stroke="#4490FF" stroke-width="1.2" stroke-miterlimit="10" stroke-linecap="round" stroke-linejoin="round"/>
<path d="M25.6003 19.9149H19.511V26.9243H25.6003V19.9149Z" stroke="#4490FF" stroke-width="1.2" stroke-miterlimit="10" stroke-linecap="round" stroke-linejoin="round"/>
<path d="M19.2566 29H25.854V26.9242H19.2566V29Z" stroke="#4490FF" stroke-width="1.2" stroke-miterlimit="10" stroke-linecap="round" stroke-linejoin="round"/>
<path d="M5.25 29H27.9796" stroke="#4490FF" stroke-width="1.2" stroke-miterlimit="10" stroke-linecap="round" stroke-linejoin="round"/>
</svg>
