<svg width="40" height="40" viewBox="0 0 40 40" fill="none" xmlns="http://www.w3.org/2000/svg">
<rect width="40" height="40" rx="20" fill="white" fill-opacity="0.2"/>
<path d="M20 30C25.5228 30 30 25.5228 30 20C30 14.4772 25.5228 10 20 10C14.4772 10 10 14.4772 10 20C10 25.5228 14.4772 30 20 30Z" stroke="white" stroke-width="2" stroke-linecap="round" stroke-linejoin="round"/>
<path d="M17.09 17.0001C17.3251 16.3317 17.7891 15.7682 18.3999 15.4092C19.0107 15.0502 19.7289 14.919 20.4271 15.0388C21.1254 15.1586 21.7588 15.5216 22.215 16.0636C22.6713 16.6056 22.921 17.2916 22.92 18.0001C22.92 20.0001 19.92 21.0001 19.92 21.0001" stroke="white" stroke-width="2" stroke-linecap="round" stroke-linejoin="round"/>
<path d="M20 25H20.01" stroke="white" stroke-width="2" stroke-linecap="round" stroke-linejoin="round"/>
</svg>
